<svg xmlns="http://www.w3.org/2000/svg" xmlns:xlink="http://www.w3.org/1999/xlink" version="1.1" id="Layer_1" x="0px" y="0px" style="enable-background:new 0 0 800 800;" xml:space="preserve" viewBox="53 132.39 691 545.54">
<style type="text/css">
	.st0{fill:#204A8F;}
	.st1{fill-rule:evenodd;clip-rule:evenodd;fill:#204A8F;}
	.st2{fill:#ECECEC;}
	.st3{opacity:0.4;}
</style>
<path class="st0" d="M738.33,677.93H58.67c-3.12,0-5.67-2.55-5.67-5.67V555.26c0-3.12,2.55-5.67,5.67-5.67h679.66  c3.12,0,5.67,2.55,5.67,5.67v117.01C744,675.38,741.45,677.93,738.33,677.93z"/>
<g>
	<path class="st2" d="M101.06,627.69v-34.88h17.7c2.13,0,3.89,0.76,5.27,2.27c1.39,1.52,2.08,3.45,2.08,5.8v17.9   c0,2.52-0.79,4.63-2.37,6.34c-1.58,1.71-3.55,2.56-5.9,2.56H101.06z M106.09,597.89v24.72h11.47c2.35,0,3.53-1.39,3.53-4.16v-16.59   c0-1.52-0.27-2.56-0.8-3.12c-0.53-0.56-1.48-0.85-2.83-0.85H106.09z"/>
	<path class="st2" d="M131.34,595.86c0-0.87,0.27-1.6,0.82-2.18c0.55-0.58,1.24-0.87,2.08-0.87c0.87,0,1.6,0.3,2.2,0.89   c0.6,0.6,0.89,1.32,0.89,2.15c0,0.84-0.29,1.55-0.87,2.13c-0.58,0.58-1.29,0.87-2.13,0.87c-0.84,0-1.55-0.29-2.13-0.87   C131.63,597.41,131.34,596.7,131.34,595.86z M132.21,627.69v-26.17h4.31v26.17H132.21z"/>
	<path class="st2" d="M164.24,592.81v27.52c0,2.03-0.64,3.77-1.91,5.2c-1.27,1.43-2.8,2.15-4.57,2.15h-8.56   c-0.77,0-1.61-0.19-2.52-0.58c-0.9-0.39-1.68-0.9-2.32-1.55c-1.1-1.1-1.64-2.68-1.64-4.74v-12.67c0-2.13,0.6-3.77,1.81-4.91   c1.21-1.14,2.96-1.72,5.25-1.72h10.11v-8.71H164.24z M147.06,620.58c0,0.74,0.23,1.39,0.68,1.94c0.45,0.55,1,0.82,1.64,0.82h7.64   c0.87,0,1.56-0.29,2.08-0.87c0.52-0.58,0.77-1.34,0.77-2.27v-11.47c0-1.9-0.94-2.85-2.81-2.85h-7.16c-1.9,0-2.85,0.98-2.85,2.95   V620.58z"/>
	<path class="st2" d="M170.43,601.52h15.48c1.19,0,2.08,0.1,2.66,0.29c0.58,0.19,1.17,0.6,1.77,1.21c0.6,0.61,1.06,1.32,1.4,2.11   c0.34,0.79,0.51,1.6,0.51,2.44v13.45c0,1.74-0.65,3.29-1.93,4.64c-1.29,1.35-2.77,2.03-4.45,2.03h-8.76   c-1.74,0-3.29-0.71-4.64-2.13c-1.35-1.42-2.03-3.05-2.03-4.89v-3.14c0-2.61,0.57-4.62,1.72-6.02c1.15-1.4,2.78-2.11,4.91-2.11   h10.79v-1.69c0-1.23-0.87-1.84-2.61-1.84h-14.8V601.52z M175.8,622.9c0.45,0.29,1.31,0.43,2.56,0.43h5.9   c1.32,0,2.14-0.13,2.47-0.39c0.32-0.26,0.59-0.6,0.8-1.04c0.21-0.44,0.31-0.81,0.31-1.14v-4.21c0-0.87-0.31-1.56-0.94-2.08   c-0.63-0.52-1.49-0.77-2.59-0.77h-6.05c-1.03,0-1.87,0.26-2.52,0.77c-0.65,0.52-0.97,1.21-0.97,2.08v4.21   c0,0.29,0.1,0.65,0.29,1.09C175.26,622.29,175.51,622.64,175.8,622.9z"/>
	<path class="st2" d="M215.12,627.69h-10.01c-2.06,0-3.79-0.63-5.18-1.89c-1.39-1.26-2.08-2.84-2.08-4.74v-12.91   c0-1.32,0.18-2.38,0.53-3.17c0.35-0.79,0.98-1.46,1.89-2.01c1.36-0.97,2.95-1.45,4.79-1.45h9.97v4.35h-9.97   c-0.87,0-1.56,0.26-2.08,0.77c-0.52,0.52-0.77,1.21-0.77,2.08v11.37c0,0.87,0.29,1.63,0.87,2.27c0.58,0.65,1.29,0.97,2.13,0.97   h9.92V627.69z"/>
	<path class="st2" d="M220.01,627.69v-34.88h4.35v8.71h4.45v4.35h-4.45v21.82H220.01z"/>
	<path class="st2" d="M230.6,595.86c0-0.87,0.27-1.6,0.82-2.18c0.55-0.58,1.24-0.87,2.08-0.87c0.87,0,1.6,0.3,2.2,0.89   c0.6,0.6,0.89,1.32,0.89,2.15c0,0.84-0.29,1.55-0.87,2.13c-0.58,0.58-1.29,0.87-2.13,0.87c-0.84,0-1.55-0.29-2.13-0.87   C230.89,597.41,230.6,596.7,230.6,595.86z M231.47,627.69v-26.17h4.31v26.17H231.47z"/>
	<path class="st2" d="M263.64,627.69h-14.56c-2.16,0-3.89-0.63-5.18-1.89c-1.29-1.26-1.94-2.93-1.94-5.03v-11.71   c0-5.03,2.68-7.55,8.03-7.55h6.48c2.19,0,3.89,0.59,5.1,1.77c1.21,1.18,1.81,2.83,1.81,4.96v3.1l-17.08,7.93v0.87l0.15,1.11   c0.1,0.36,0.15,0.59,0.17,0.7c0.02,0.11,0.09,0.27,0.22,0.46c0.32,0.61,1.13,0.92,2.42,0.92h14.37V627.69z M246.32,609.17   l0.01,5.29l12.66-5.93l0-0.43c0-0.84-0.19-1.42-0.56-1.74c-0.37-0.32-1.07-0.48-2.1-0.48h-7.11   C247.29,605.87,246.32,606.97,246.32,609.17z"/>
	<path class="st2" d="M268.96,627.69v-34.88h4.35v34.88H268.96z M285.42,627.68l-10.89-11.22c-0.68-0.77-1.02-1.52-1.02-2.23   c0-0.55,0.07-1,0.21-1.36c0.14-0.36,0.41-0.73,0.79-1.11l10.23-10.24l6.14-0.01l-12.53,12.63l13.06,13.54L285.42,627.68z"/>
	<path class="st2" d="M330.68,592.81v27.52c0,2.03-0.64,3.77-1.91,5.2c-1.27,1.43-2.8,2.15-4.57,2.15h-8.56   c-0.77,0-1.61-0.19-2.52-0.58s-1.68-0.9-2.32-1.55c-1.1-1.1-1.64-2.68-1.64-4.74v-12.67c0-2.13,0.6-3.77,1.81-4.91   c1.21-1.14,2.96-1.72,5.25-1.72h10.11v-8.71H330.68z M313.51,620.58c0,0.74,0.23,1.39,0.68,1.94c0.45,0.55,1,0.82,1.64,0.82h7.64   c0.87,0,1.56-0.29,2.08-0.87c0.52-0.58,0.77-1.34,0.77-2.27v-11.47c0-1.9-0.94-2.85-2.81-2.85h-7.16c-1.9,0-2.85,0.98-2.85,2.95   V620.58z"/>
	<path class="st2" d="M335.96,595.86c0-0.87,0.27-1.6,0.82-2.18c0.55-0.58,1.24-0.87,2.08-0.87c0.87,0,1.6,0.3,2.2,0.89   c0.6,0.6,0.89,1.32,0.89,2.15c0,0.84-0.29,1.55-0.87,2.13c-0.58,0.58-1.29,0.87-2.13,0.87c-0.84,0-1.55-0.29-2.13-0.87   C336.25,597.41,335.96,596.7,335.96,595.86z M336.83,627.69v-26.17h4.31v26.17H336.83z"/>
	<path class="st2" d="M368.99,627.69h-14.56c-2.16,0-3.89-0.63-5.18-1.89c-1.29-1.26-1.94-2.93-1.94-5.03v-11.71   c0-5.03,2.68-7.55,8.03-7.55h6.48c2.19,0,3.89,0.59,5.1,1.77c1.21,1.18,1.81,2.83,1.81,4.96v3.1l-17.08,7.93v0.87l0.15,1.11   c0.1,0.36,0.15,0.59,0.17,0.7s0.09,0.27,0.22,0.46c0.32,0.61,1.13,0.92,2.42,0.92h14.37V627.69z M351.68,609.17l0.01,5.29   l12.66-5.93l0-0.43c0-0.84-0.19-1.42-0.56-1.74c-0.37-0.32-1.07-0.48-2.1-0.48h-7.11C352.64,605.87,351.68,606.97,351.68,609.17z"/>
	<path class="st2" d="M385.2,601.52h4.64l7.88,21.26l7.98-21.26l4.65,0l-8.95,23.99c-0.35,1-0.8,1.69-1.35,2.08   c-0.55,0.39-1.31,0.58-2.31,0.58c-0.96,0-1.72-0.19-2.26-0.58c-0.55-0.39-0.99-1.09-1.35-2.09L385.2,601.52z"/>
	<path class="st2" d="M420.36,627.69c-2.06,0-3.74-0.6-5.03-1.79c-1.29-1.19-1.94-2.76-1.94-4.69v-13.54c0-1.9,0.61-3.4,1.84-4.5   c1.23-1.1,2.93-1.64,5.13-1.64h7.98c2.1,0,3.78,0.56,5.05,1.67c1.27,1.11,1.91,2.6,1.91,4.47v13.59c0,1.84-0.66,3.37-1.98,4.6   c-1.32,1.23-2.98,1.84-4.98,1.84H420.36z M417.75,619.85c0,1.23,0.24,2.11,0.73,2.66c0.48,0.55,1.27,0.82,2.37,0.82h7.01   c2.06,0,3.1-1.1,3.1-3.29v-11.03c0-2.1-1.03-3.14-3.1-3.14h-7.01c-2.06,0-3.1,1.05-3.1,3.14V619.85z"/>
	<path class="st2" d="M448.47,627.69c-2.06,0-3.74-0.6-5.03-1.79c-1.29-1.19-1.94-2.76-1.94-4.69v-13.54c0-1.9,0.61-3.4,1.84-4.5   c1.23-1.1,2.93-1.64,5.13-1.64h7.98c2.1,0,3.78,0.56,5.05,1.67c1.27,1.11,1.91,2.6,1.91,4.47v13.59c0,1.84-0.66,3.37-1.98,4.6   c-1.32,1.23-2.98,1.84-4.98,1.84H448.47z M445.86,619.85c0,1.23,0.24,2.11,0.73,2.66c0.48,0.55,1.27,0.82,2.37,0.82h7.01   c2.06,0,3.1-1.1,3.1-3.29v-11.03c0-2.1-1.03-3.14-3.1-3.14h-7.01c-2.06,0-3.1,1.05-3.1,3.14V619.85z"/>
	<path class="st2" d="M469.61,627.69v-19.25c0-2.39,0.48-4.11,1.45-5.18c0.51-0.48,1.25-0.9,2.2-1.23c0.95-0.34,1.88-0.51,2.78-0.51   h2.47v4.4h-2.13c-1.61,0-2.42,0.87-2.42,2.61v19.16H469.61z"/>
	<path class="st2" d="M491.86,636.2v-4.35h1.69c1.77,0,2.66-0.93,2.66-2.81v-27.52h4.31v27.52c0,1.22-0.06,2.14-0.19,2.73   c-0.13,0.6-0.42,1.23-0.87,1.91c-1.19,1.68-2.69,2.51-4.5,2.51H491.86z M495.39,595.86c0-0.84,0.28-1.56,0.85-2.15   c0.56-0.6,1.25-0.89,2.06-0.89c0.87,0,1.6,0.3,2.2,0.89c0.6,0.6,0.9,1.32,0.9,2.15c0,0.84-0.29,1.55-0.87,2.13   c-0.58,0.58-1.29,0.87-2.13,0.87c-0.84,0-1.55-0.29-2.13-0.87C495.68,597.41,495.39,596.7,495.39,595.86z"/>
	<path class="st2" d="M513.67,627.69c-2.06,0-3.74-0.6-5.03-1.79c-1.29-1.19-1.94-2.76-1.94-4.69v-13.54c0-1.9,0.61-3.4,1.84-4.5   c1.23-1.1,2.93-1.64,5.13-1.64h7.98c2.1,0,3.78,0.56,5.05,1.67c1.27,1.11,1.91,2.6,1.91,4.47v13.59c0,1.84-0.66,3.37-1.98,4.6   c-1.32,1.23-2.98,1.84-4.98,1.84H513.67z M511.06,619.85c0,1.23,0.24,2.11,0.73,2.66c0.48,0.55,1.27,0.82,2.37,0.82h7.01   c2.06,0,3.1-1.1,3.1-3.29v-11.03c0-2.1-1.03-3.14-3.1-3.14h-7.01c-2.06,0-3.1,1.05-3.1,3.14V619.85z"/>
	<path class="st2" d="M556.39,601.52v19.49c0,2.23-0.76,4-2.27,5.32c-0.61,0.48-1.32,0.83-2.1,1.04c-0.79,0.21-1.78,0.31-2.98,0.31   h-6.92c-1.29,0-2.28-0.1-2.98-0.29c-0.69-0.19-1.38-0.55-2.06-1.06c-1.52-1.26-2.27-3.03-2.27-5.32v-19.49h4.35v18.91v1.21   c0.06,0.36,0.24,0.66,0.54,0.92c0.48,0.45,1.28,0.68,2.38,0.68h6.99c1.13,0,1.92-0.2,2.35-0.6c0.44-0.4,0.66-1.14,0.66-2.2v-18.91   H556.39z"/>
	<path class="st2" d="M573.99,601.52l4.28-0.01l5.03,20.79l5.01-19.04c0.16-0.68,0.53-1.21,1.11-1.6s1.29-0.58,2.13-0.58   c0.81,0,1.51,0.2,2.13,0.6c0.61,0.4,1,0.93,1.16,1.57l5.02,19.04l5.03-20.79l4.28,0.01l-5.8,24.23c-0.16,0.71-0.54,1.28-1.14,1.72   c-0.6,0.44-1.33,0.65-2.2,0.65c-1.97,0-3.21-0.95-3.73-2.85l-4.63-18.36l-4.78,18.36c-0.55,1.9-1.81,2.85-3.78,2.85   c-0.84,0-1.56-0.22-2.16-0.65c-0.6-0.43-0.98-1.01-1.14-1.72L573.99,601.52z"/>
	<path class="st2" d="M634.41,627.69h-14.56c-2.16,0-3.89-0.63-5.18-1.89c-1.29-1.26-1.94-2.93-1.94-5.03v-11.71   c0-5.03,2.68-7.55,8.03-7.55h6.48c2.19,0,3.89,0.59,5.1,1.77c1.21,1.18,1.81,2.83,1.81,4.96v3.1l-17.08,7.93v0.87l0.15,1.11   c0.1,0.36,0.15,0.59,0.17,0.7c0.02,0.11,0.09,0.27,0.22,0.46c0.32,0.61,1.13,0.92,2.42,0.92h14.37V627.69z M617.09,609.17   l0.01,5.29l12.66-5.93l0-0.43c0-0.84-0.19-1.42-0.56-1.74c-0.37-0.32-1.07-0.48-2.1-0.48H620   C618.06,605.87,617.09,606.97,617.09,609.17z"/>
	<path class="st2" d="M639.73,627.69v-19.25c0-2.39,0.48-4.11,1.45-5.18c0.51-0.48,1.25-0.9,2.2-1.23c0.95-0.34,1.88-0.51,2.78-0.51   h2.47v4.4h-2.13c-1.61,0-2.42,0.87-2.42,2.61v19.16H639.73z"/>
	<path class="st2" d="M652.35,627.69v-34.88h4.35v34.88H652.35z M668.81,627.68l-10.89-11.22c-0.68-0.77-1.02-1.52-1.02-2.23   c0-0.55,0.07-1,0.21-1.36c0.14-0.36,0.41-0.73,0.79-1.11l10.23-10.24l6.14-0.01l-12.53,12.63l13.06,13.54L668.81,627.68z"/>
	<path class="st2" d="M678.52,627.69v-34.88h4.35v8.71h4.45v4.35h-4.45v21.82H678.52z"/>
	<path class="st2" d="M690.04,624.64c0-0.84,0.27-1.55,0.82-2.13c0.54-0.58,1.22-0.87,2.02-0.87c0.83,0,1.55,0.29,2.16,0.87   c0.61,0.58,0.91,1.29,0.91,2.13c0,0.87-0.29,1.6-0.86,2.18c-0.58,0.58-1.3,0.87-2.16,0.87c-0.8,0-1.48-0.3-2.04-0.9   C690.32,626.2,690.04,625.48,690.04,624.64z M690.37,620v-27.19h5.03V620H690.37z"/>
</g>
<g class="st3">
	<g id="XMLID_00000104698826176787953110000014047242301713762475_">
		<g>
			<path class="st0" d="M464.95,249.76c6.85,10.07,7.72,23.95-1.65,30.93c-4.1,3.05-9.56,4.79-14.66,5.94     c-28,6.22-56.07,12.08-84.12,18.05c-1.27,0.28-2.58,0.8-3.8,0.65c-17.98-2.07-21.91,12.17-27.43,24.03     c-13.21,28.37-21.73,58.33-27.05,89.01c-3.37,19.5-6.17,39.29-2.57,59.32c3.71,20.55,6.79,41.22,10.16,61.95     c-15.93,0-33.6,0-53.38,0c-6.25-18.85-13.62-38.19-18.97-58.08c-5.24-19.5-9.34-39.42-12.18-59.39     c-1.81-12.63-0.62-25.72-0.39-38.58c0.26-14.86,1.21-29.7,1.36-44.55c0.08-7.38-0.36-14.88-1.86-22.05     c-0.45-2.23-4.96-4.72-7.92-5.16c-28.87-4.33-57.83-7.99-86.7-12.4c-18.12-2.77-25.73-16.65-17.4-33.23     c9.7-19.31,22.25-36.83,38.92-51.04c1.5-1.28,3.28-2.63,4.04-4.33c6.51-14.81,19.19-20.26,33.9-21.42     c13.22-1.04,24.51,17.16,17.88,28.7c-1.81,3.14-6.68,5.52-10.53,6.26c-5.18,1.01-10.76,0.23-16.14-0.05     c-7.45-0.37-11.86,3.32-13.16,10.28c-2.04,10.84-3.56,21.77-5.55,34.33c5.72-0.91,10.95-1.24,15.88-2.63     c15.4-4.36,29.58-2.1,43.95,4.92c7.76,3.79,16.95,4.92,25.62,6.59c5.97,1.16,12.23,0.71,18.22,1.81     c23.64,4.35,46.47-2.66,69.6-4.96c4.7-0.46,9.51-3.59,13.53-6.51c14.18-10.3,29.44-15.34,47.05-12.01     c5.44,1.04,11.03,1.31,17.83,2.1c-3.32-13.16-6-24.85-9.31-36.35c-1.76-6.09-6.8-7.87-12.88-7.27     c-5.89,0.57-11.81,1.44-17.67,1.22c-7.65-0.26-11.01-4.33-11.1-11.91c-0.2-19.55,10.96-27.85,29.64-21.79     c9.9,3.23,18.37,7.73,23.77,18c3.08,5.88,11.03,8.95,15.76,14.23C445.84,225.76,456.35,237.14,464.95,249.76z"/>
			<path class="st0" d="M354.57,165.85c4.28,30.74-14.8,67.08-42.54,81.04c-21.05,10.59-38.61-0.08-46.98-18.35     c-3.7-8.09-4.56-17.47-6.71-26.27c1.28-30.12,21.43-58.9,45.94-67.3C329.11,126.47,350.91,139.57,354.57,165.85z"/>
		</g>
	</g>
</g>
<g>
	<g id="XMLID_00000052784855054833612860000002068957911991349171_">
		<g>
			<path class="st0" d="M238.21,360.08c-4.26,6.25-4.8,14.87,1.03,19.2c2.55,1.89,5.95,2.98,9.13,3.69     c17.43,3.86,34.91,7.5,52.37,11.2c0.79,0.17,1.61,0.5,2.37,0.4c11.2-1.29,13.64,7.56,17.08,14.92     c8.22,17.62,13.53,36.22,16.84,55.26c2.1,12.11,3.84,24.4,1.6,36.83c-2.31,12.76-4.23,25.6-6.32,38.46c9.92,0,20.92,0,33.23,0     c3.89-11.7,8.48-23.71,11.81-36.06c3.26-12.11,5.81-24.47,7.59-36.88c1.13-7.84,0.39-15.97,0.24-23.95     c-0.16-9.23-0.75-18.44-0.85-27.66c-0.05-4.58,0.22-9.24,1.16-13.69c0.28-1.38,3.09-2.93,4.93-3.21c17.97-2.69,36-4.96,53.98-7.7     c11.28-1.72,16.02-10.34,10.83-20.63c-6.04-11.99-13.85-22.87-24.23-31.69c-0.93-0.8-2.04-1.63-2.51-2.69     c-4.05-9.2-11.95-12.58-21.1-13.3c-8.23-0.64-15.26,10.66-11.13,17.82c1.13,1.95,4.16,3.43,6.56,3.89     c3.22,0.62,6.7,0.14,10.05-0.03c4.64-0.23,7.38,2.06,8.19,6.38c1.27,6.73,2.21,13.52,3.46,21.31c-3.56-0.57-6.82-0.77-9.89-1.63     c-9.59-2.71-18.42-1.31-27.36,3.05c-4.83,2.35-10.55,3.05-15.95,4.09c-3.72,0.72-7.61,0.44-11.34,1.12     c-14.72,2.7-28.93-1.65-43.33-3.08c-2.93-0.29-5.92-2.23-8.42-4.04c-8.83-6.39-18.33-9.52-29.29-7.46     c-3.39,0.64-6.86,0.82-11.1,1.31c2.07-8.17,3.74-15.43,5.8-22.57c1.1-3.78,4.24-4.89,8.02-4.51c3.67,0.36,7.35,0.89,11,0.76     c4.77-0.16,6.85-2.69,6.91-7.39c0.13-12.14-6.83-17.29-18.45-13.53c-6.16,2.01-11.44,4.8-14.8,11.18     c-1.92,3.65-6.86,5.56-9.81,8.83C250.11,345.18,243.56,352.25,238.21,360.08z"/>
			<path class="st0" d="M306.92,307.99c-2.67,19.09,9.21,41.65,26.48,50.32c13.1,6.58,24.04-0.05,29.25-11.4     c2.3-5.02,2.84-10.85,4.18-16.31c-0.8-18.7-13.34-36.57-28.6-41.78C322.78,283.53,309.2,291.67,306.92,307.99z"/>
		</g>
	</g>
</g>
</svg>