<?xml version="1.0" encoding="utf-8"?>
<!-- Generator: Adobe Illustrator 27.8.1, SVG Export Plug-In . SVG Version: 6.00 Build 0)  -->
<svg version="1.1" id="Laag_1" xmlns="http://www.w3.org/2000/svg" xmlns:xlink="http://www.w3.org/1999/xlink" x="0px" y="0px"
	 viewBox="0 0 500 500" style="enable-background:new 0 0 500 500;" xml:space="preserve">
<style type="text/css">
	.st0{fill:#204A8F;}
	.st1{fill:#ECECEC;}
	.st2{fill:#6FBEC3;}
	.st3{fill:#EEEDED;}
	.st4{fill:#1F3665;}
	.st5{fill:#EFB04E;}
	.st6{fill:#D7D7D9;}
	.st7{fill:#3B4250;}
	.st8{fill:#FFFFFF;}
	.st9{fill:#517BBD;}
	.st10{fill:#F7F7F8;}
</style>
<g>
	<g>
		<g>
			<g>
				<circle class="st0" cx="243.45" cy="202.12" r="160.78"/>
			</g>
		</g>
		<g>
			<g>
				<g>
					<rect x="237.33" y="204.89" class="st1" width="12.37" height="99.2"/>
				</g>
			</g>
			<g>
				<g>
					<path class="st1" d="M255.88,300.99c0,1.7-1.39,3.09-3.09,3.09h-18.55c-1.7,0-3.09-1.39-3.09-3.09v-68.02
						c0-1.7,1.39-3.09,3.09-3.09h18.55c1.7,0,3.09,1.39,3.09,3.09V300.99z"/>
				</g>
			</g>
			<g>
				<g>
					<g>
						<path class="st0" d="M282.87,116.32c-10.07-10.07-23.99-16.3-39.35-16.3v55.66L282.87,116.32z"/>
					</g>
				</g>
				<g>
					<g>
						<path class="st2" d="M243.51,100.02c-30.74,0-55.65,24.92-55.65,55.66c0,30.74,24.92,55.65,55.65,55.65
							c15.37,0,29.28-6.23,39.35-16.3l-39.35-39.35V100.02z"/>
					</g>
				</g>
				<g>
					<g>
						<path class="st3" d="M299.17,155.67c0-15.37-6.23-29.28-16.3-39.35l-39.35,39.35l39.35,39.35
							C292.94,184.96,299.17,171.04,299.17,155.67z"/>
					</g>
				</g>
			</g>
			<g>
				<g>
					<path class="st1" d="M243.51,112.39c23.87,0,43.29,19.42,43.29,43.29s-19.42,43.29-43.29,43.29s-43.29-19.42-43.29-43.29
						S219.64,112.39,243.51,112.39L243.51,112.39z M243.51,100.02c-30.74,0-55.65,24.92-55.65,55.66s24.92,55.65,55.65,55.65
						c30.74,0,55.66-24.92,55.66-55.65S274.25,100.02,243.51,100.02L243.51,100.02z"/>
				</g>
			</g>
		</g>
	</g>
	<g>
		<g>
			<path class="st4" d="M350.89,184.34l-68.02-68.02l0,0c10.07,10.07,16.3,23.99,16.3,39.35c0,14.02-5.19,26.81-13.74,36.59
				c-8.93,10.21-21.52,17.14-35.73,18.71v18.9h3.09c1.7,0,3.09,1.39,3.09,3.09v13.78v32.6v21.64c0,1.7-1.39,3.09-3.09,3.09h-3.09
				h-12.37h-3.09c-0.85,0-1.62-0.35-2.18-0.91l54,54c19.72-5.41,37.93-14.46,53.84-26.42c30.84-23.16,53.09-57.15,61.08-96.33
				L350.89,184.34z"/>
		</g>
		<g>
			<path class="st4" d="M237.33,210.98c-12.9-1.43-24.46-7.26-33.16-15.96l-0.01,0.01l33.17,33.17V210.98z"/>
		</g>
	</g>
</g>
<g>
	<path class="st0" d="M159.51,462.18c-2.45,0-4.21-0.16-5.27-0.48c-1.07-0.32-2.08-1.02-3.05-2.08c-1.51-1.61-2.27-4.02-2.27-7.21
		v-15.33c0-1.74,0.17-3.14,0.51-4.18c0.34-1.05,0.95-2.07,1.84-3.07c0.89-1,1.89-1.67,3-2.01c1.11-0.34,2.86-0.51,5.25-0.51h3.77
		c2.48,0,4.23,0.16,5.25,0.48c1.02,0.32,2.04,1.01,3.07,2.08c1.55,1.65,2.32,4.05,2.32,7.21v15.33c0,1.74-0.16,3.14-0.48,4.18
		c-0.32,1.05-0.94,2.07-1.86,3.07c-0.92,1-1.94,1.67-3.05,2.01c-1.11,0.34-2.86,0.51-5.25,0.51H159.51z M153.94,452.65
		c0,1.74,0.32,2.92,0.97,3.53c0.65,0.61,1.92,0.92,3.82,0.92h5.37c1.87,0,3.14-0.3,3.8-0.89c0.66-0.6,0.99-1.77,0.99-3.51v-15.87
		c0-1.68-0.34-2.84-1.02-3.48c-0.68-0.65-1.94-0.97-3.77-0.97h-5.37c-1.84,0-3.1,0.31-3.77,0.92c-0.68,0.61-1.02,1.79-1.02,3.53
		V452.65z"/>
	<path class="st0" d="M180.07,462.18v-19.26c0-2.38,0.48-4.11,1.45-5.18c0.52-0.48,1.25-0.89,2.2-1.23
		c0.95-0.34,1.88-0.51,2.78-0.51h2.47v4.4h-2.13c-1.61,0-2.42,0.87-2.42,2.61v19.16H180.07z"/>
	<path class="st0" d="M191.77,430.34c0-0.87,0.27-1.6,0.82-2.18c0.55-0.58,1.24-0.87,2.08-0.87c0.87,0,1.6,0.3,2.2,0.89
		c0.6,0.6,0.89,1.32,0.89,2.15c0,0.84-0.29,1.55-0.87,2.13c-0.58,0.58-1.29,0.87-2.13,0.87s-1.55-0.29-2.13-0.87
		C192.06,431.89,191.77,431.18,191.77,430.34z M192.65,462.18V436h4.3v26.17H192.65z"/>
	<path class="st0" d="M224.82,462.18h-14.56c-2.16,0-3.89-0.63-5.18-1.89c-1.29-1.26-1.94-2.94-1.94-5.03v-11.71
		c0-5.03,2.68-7.55,8.03-7.55h6.48c2.19,0,3.89,0.59,5.1,1.77c1.21,1.18,1.81,2.83,1.81,4.96v3.1l-17.08,7.93v0.87l0.15,1.11
		c0.1,0.35,0.15,0.59,0.17,0.7c0.01,0.11,0.09,0.27,0.22,0.46c0.32,0.61,1.13,0.92,2.42,0.92h14.37V462.18z M206.38,430.34
		c0-0.87,0.27-1.6,0.82-2.18c0.55-0.58,1.24-0.87,2.08-0.87c0.84,0,1.56,0.29,2.18,0.87c0.61,0.58,0.92,1.31,0.92,2.18
		c0,0.84-0.29,1.55-0.87,2.13c-0.58,0.58-1.29,0.87-2.13,0.87c-0.84,0-1.55-0.29-2.13-0.87
		C206.67,431.89,206.38,431.18,206.38,430.34z M207.5,443.66l0.01,5.29l12.66-5.94v-0.43c0-0.84-0.19-1.42-0.56-1.74
		c-0.37-0.32-1.07-0.48-2.1-0.48h-7.11C208.47,440.36,207.5,441.46,207.5,443.66z M214.71,430.34c0-0.87,0.27-1.6,0.82-2.18
		c0.55-0.58,1.26-0.87,2.13-0.87c0.84,0,1.55,0.29,2.13,0.87c0.58,0.58,0.87,1.31,0.87,2.18c0,0.84-0.27,1.55-0.82,2.13
		c-0.55,0.58-1.26,0.87-2.13,0.87c-0.84,0-1.55-0.29-2.13-0.87C215,431.89,214.71,431.18,214.71,430.34z"/>
	<path class="st0" d="M230.14,462.18v-19.45c0-2.29,0.76-4.06,2.27-5.32c1.13-0.94,2.81-1.4,5.03-1.4h6.92
		c2.22,0,3.92,0.47,5.08,1.4c0.74,0.61,1.31,1.36,1.69,2.25c0.38,0.89,0.58,1.91,0.58,3.07v19.45h-4.31v-18.87v-1.21
		c-0.03-0.29-0.21-0.61-0.53-0.97c-0.55-0.45-1.35-0.68-2.39-0.68h-7.02c-1.14,0-1.92,0.21-2.34,0.63
		c-0.42,0.42-0.63,1.16-0.63,2.22v18.87H230.14z"/>
	<path class="st0" d="M257.91,462.18V427.3h4.35V436h4.45v4.36h-4.45v21.82H257.91z"/>
	<path class="st0" d="M290.42,462.18h-14.56c-2.16,0-3.89-0.63-5.18-1.89c-1.29-1.26-1.94-2.94-1.94-5.03v-11.71
		c0-5.03,2.68-7.55,8.03-7.55h6.48c2.19,0,3.89,0.59,5.1,1.77c1.21,1.18,1.81,2.83,1.81,4.96v3.1l-17.08,7.93v0.87l0.15,1.11
		c0.1,0.35,0.15,0.59,0.17,0.7c0.01,0.11,0.09,0.27,0.22,0.46c0.32,0.61,1.13,0.92,2.42,0.92h14.37V462.18z M273.1,443.66l0.01,5.29
		l12.66-5.94v-0.43c0-0.84-0.19-1.42-0.56-1.74s-1.07-0.48-2.1-0.48H276C274.07,440.36,273.1,441.46,273.1,443.66z"/>
	<path class="st0" d="M295.74,462.18v-19.26c0-2.38,0.48-4.11,1.45-5.18c0.52-0.48,1.25-0.89,2.2-1.23
		c0.95-0.34,1.88-0.51,2.78-0.51h2.47v4.4h-2.13c-1.61,0-2.42,0.87-2.42,2.61v19.16H295.74z"/>
	<path class="st0" d="M330.05,462.18h-14.56c-2.16,0-3.89-0.63-5.18-1.89c-1.29-1.26-1.94-2.94-1.94-5.03v-11.71
		c0-5.03,2.68-7.55,8.03-7.55h6.48c2.19,0,3.89,0.59,5.1,1.77c1.21,1.18,1.81,2.83,1.81,4.96v3.1l-17.08,7.93v0.87l0.15,1.11
		c0.1,0.35,0.15,0.59,0.17,0.7c0.01,0.11,0.09,0.27,0.22,0.46c0.32,0.61,1.13,0.92,2.42,0.92h14.37V462.18z M312.72,443.66
		l0.01,5.29l12.66-5.94v-0.43c0-0.84-0.19-1.42-0.56-1.74s-1.07-0.48-2.1-0.48h-7.11C313.69,440.36,312.72,441.46,312.72,443.66z"/>
	<path class="st0" d="M335.37,462.18v-19.45c0-2.29,0.76-4.06,2.27-5.32c1.13-0.94,2.81-1.4,5.03-1.4h6.92
		c2.22,0,3.92,0.47,5.08,1.4c0.74,0.61,1.31,1.36,1.69,2.25c0.38,0.89,0.58,1.91,0.58,3.07v19.45h-4.31v-18.87v-1.21
		c-0.03-0.29-0.21-0.61-0.53-0.97c-0.55-0.45-1.35-0.68-2.39-0.68h-7.02c-1.14,0-1.92,0.21-2.34,0.63
		c-0.42,0.42-0.63,1.16-0.63,2.22v18.87H335.37z"/>
</g>
</svg>
