<?xml version="1.0" encoding="utf-8"?>
<!-- Generator: Adobe Illustrator 27.8.1, SVG Export Plug-In . SVG Version: 6.00 Build 0)  -->
<svg version="1.1" id="Laag_1" xmlns="http://www.w3.org/2000/svg" xmlns:xlink="http://www.w3.org/1999/xlink" x="0px" y="0px"
	 viewBox="0 0 500 500" style="enable-background:new 0 0 500 500;" xml:space="preserve">
<style type="text/css">
	.st0{fill:#204A8F;}
	.st1{fill:#ECECEC;}
	.st2{fill:#6FBEC3;}
	.st3{fill:#EEEDED;}
	.st4{fill:#1F3665;}
	.st5{fill:#EFB04E;}
	.st6{fill:#D7D7D9;}
	.st7{fill:#3B4250;}
	.st8{fill:#FFFFFF;}
	.st9{fill:#517BBD;}
	.st10{fill:#F7F7F8;}
</style>
<g>
	<g>
		<path class="st0" d="M74.33,462.23h-17.9c-1.29,0-2.37-0.42-3.24-1.26c-0.87-0.84-1.3-1.89-1.3-3.15c0-0.87,0.3-1.74,0.91-2.61
			l16.15-22.78H52.31v-5.08h18.33c1.23,0,2.22,0.38,2.98,1.14c0.76,0.76,1.14,1.75,1.14,2.98c0,0.97-0.3,1.89-0.92,2.76
			l-16.25,22.93h16.74V462.23z"/>
		<path class="st0" d="M100.98,462.23H86.42c-2.16,0-3.89-0.63-5.18-1.89c-1.29-1.26-1.94-2.94-1.94-5.03V443.6
			c0-5.03,2.68-7.55,8.03-7.55h6.48c2.19,0,3.89,0.59,5.1,1.77c1.21,1.18,1.81,2.83,1.81,4.96v3.1l-17.08,7.93v0.87l0.15,1.11
			c0.1,0.35,0.15,0.59,0.17,0.7c0.01,0.11,0.09,0.27,0.22,0.46c0.32,0.61,1.13,0.92,2.42,0.92h14.37V462.23z M83.66,443.71
			l0.01,5.29l12.66-5.94v-0.43c0-0.84-0.19-1.42-0.56-1.74c-0.37-0.32-1.07-0.48-2.1-0.48h-7.11
			C84.63,440.41,83.66,441.51,83.66,443.71z"/>
		<path class="st0" d="M106.31,462.23v-34.88h4.35v34.88H106.31z"/>
		<path class="st0" d="M116.75,462.23v-28.2c0-2.16,0.8-3.92,2.41-5.27c0.61-0.55,1.23-0.92,1.85-1.11
			c0.62-0.19,1.53-0.29,2.72-0.29h1.78v4.4h-1.77c-1.76,0-2.63,1.03-2.63,3.1v1.21h4.4v4.36h-4.4v21.82H116.75z"/>
		<path class="st0" d="M127.83,462.23v-4.35h12.29h1.11c1.19,0,1.79-0.87,1.79-2.61v-2.03c0-1.65-0.85-2.47-2.56-2.47h-5.9
			c-1.97,0-3.47-0.4-4.5-1.21c-0.61-0.45-1.11-1.07-1.5-1.86c-0.39-0.79-0.58-1.57-0.58-2.35v-3.29c0-1.87,0.51-3.34,1.54-4.4
			c1.03-1.07,2.45-1.6,4.25-1.6h13.61v4.36h-12.35h-0.87c-0.55,0-0.99,0.18-1.35,0.53c-0.35,0.35-0.53,0.82-0.53,1.4v1.89
			c0,0.61,0.24,1.12,0.7,1.52c0.47,0.4,1.04,0.6,1.72,0.6h6.48c1.68,0,3.13,0.6,4.35,1.79c1.22,1.19,1.84,2.61,1.84,4.26v4.11
			c0,1.48-0.56,2.81-1.69,3.97c-1.13,1.16-2.43,1.74-3.92,1.74H127.83z"/>
		<path class="st0" d="M152.7,462.23v-34.88h4.35v8.71h4.45v4.36h-4.45v21.82H152.7z"/>
		<path class="st0" d="M163.78,436.05h15.48c1.19,0,2.08,0.1,2.66,0.29c0.58,0.19,1.17,0.6,1.76,1.21c0.6,0.61,1.07,1.32,1.4,2.1
			c0.34,0.79,0.51,1.6,0.51,2.44v13.45c0,1.74-0.65,3.29-1.93,4.64c-1.29,1.35-2.78,2.03-4.45,2.03h-8.76
			c-1.74,0-3.29-0.71-4.64-2.13c-1.35-1.42-2.03-3.05-2.03-4.89v-3.14c0-2.61,0.57-4.62,1.72-6.02c1.14-1.4,2.78-2.1,4.91-2.1h10.79
			v-1.69c0-1.22-0.87-1.84-2.61-1.84h-14.8V436.05z M169.15,457.44c0.45,0.29,1.31,0.43,2.56,0.43h5.9c1.32,0,2.14-0.13,2.47-0.39
			c0.32-0.26,0.59-0.6,0.8-1.04c0.21-0.43,0.32-0.81,0.32-1.14v-4.21c0-0.87-0.32-1.56-0.94-2.08c-0.63-0.52-1.49-0.78-2.59-0.78
			h-6.05c-1.03,0-1.87,0.26-2.51,0.78c-0.65,0.52-0.97,1.21-0.97,2.08v4.21c0,0.29,0.1,0.65,0.29,1.09
			C168.62,456.83,168.86,457.18,169.15,457.44z"/>
		<path class="st0" d="M191.7,462.23v-19.45c0-2.29,0.76-4.06,2.27-5.32c1.13-0.94,2.81-1.4,5.03-1.4h6.92
			c2.22,0,3.92,0.47,5.08,1.4c0.74,0.61,1.31,1.36,1.69,2.25c0.38,0.89,0.58,1.91,0.58,3.07v19.45h-4.31v-18.87v-1.21
			c-0.03-0.29-0.21-0.61-0.53-0.97c-0.55-0.45-1.35-0.68-2.39-0.68h-7.02c-1.14,0-1.92,0.21-2.34,0.63
			c-0.42,0.42-0.63,1.16-0.63,2.22v18.87H191.7z"/>
		<path class="st0" d="M241,427.34v27.53c0,2.03-0.64,3.77-1.91,5.2c-1.28,1.43-2.8,2.15-4.57,2.15h-8.56
			c-0.78,0-1.61-0.19-2.52-0.58c-0.9-0.38-1.68-0.9-2.32-1.55c-1.1-1.09-1.65-2.68-1.65-4.74v-12.67c0-2.13,0.6-3.77,1.81-4.91
			c1.21-1.14,2.96-1.72,5.25-1.72h10.11v-8.71H241z M223.82,455.12c0,0.74,0.23,1.39,0.68,1.94c0.45,0.55,1,0.82,1.65,0.82h7.64
			c0.87,0,1.56-0.29,2.08-0.87c0.52-0.58,0.77-1.34,0.77-2.27v-11.47c0-1.9-0.93-2.85-2.81-2.85h-7.16c-1.9,0-2.86,0.98-2.86,2.95
			V455.12z"/>
		<path class="st0" d="M246.27,430.39c0-0.87,0.27-1.6,0.82-2.18c0.55-0.58,1.24-0.87,2.08-0.87c0.87,0,1.6,0.3,2.2,0.89
			c0.6,0.6,0.89,1.32,0.89,2.15c0,0.84-0.29,1.55-0.87,2.13c-0.58,0.58-1.29,0.87-2.13,0.87s-1.55-0.29-2.13-0.87
			C246.56,431.94,246.27,431.23,246.27,430.39z M247.14,462.23v-26.17h4.3v26.17H247.14z"/>
		<path class="st0" d="M257.64,470.74v-4.36h14.08c0.87,0,1.39-0.02,1.55-0.05c0.16-0.03,0.42-0.21,0.78-0.53
			c0.65-0.65,0.97-1.45,0.97-2.42v-1.16h-10.4c-1.94,0-3.56-0.68-4.86-2.05s-1.96-3.06-1.96-5.06v-12.34c0-1.93,0.59-3.54,1.77-4.81
			c1.18-1.27,2.65-1.91,4.43-1.91h9.24c1.9,0,3.4,0.57,4.48,1.72c1.08,1.15,1.62,2.7,1.62,4.67v21.87c0,1.97-0.66,3.53-1.98,4.69
			c-1.32,1.16-3.13,1.74-5.42,1.74H257.64z M262.14,454.73c0,0.94,0.26,1.69,0.77,2.27c0.52,0.58,1.19,0.87,2.03,0.87h7.64
			c1.61,0,2.42-1.05,2.42-3.15v-11.37c0-1.97-0.79-2.95-2.37-2.95h-7.35c-0.97,0-1.73,0.27-2.3,0.8c-0.57,0.53-0.84,1.25-0.84,2.15
			V454.73z"/>
		<path class="st0" d="M296.92,436.05l4.28,0l5.03,20.79l5.01-19.04c0.16-0.68,0.53-1.21,1.11-1.6c0.58-0.39,1.29-0.58,2.12-0.58
			c0.81,0,1.51,0.2,2.13,0.6c0.61,0.4,1,0.93,1.16,1.57l5.02,19.04l5.03-20.79l4.28,0l-5.8,24.24c-0.16,0.71-0.54,1.28-1.14,1.72
			c-0.6,0.44-1.33,0.65-2.2,0.65c-1.97,0-3.21-0.95-3.73-2.85l-4.63-18.36l-4.79,18.36c-0.55,1.9-1.81,2.85-3.78,2.85
			c-0.84,0-1.56-0.22-2.16-0.65c-0.6-0.43-0.97-1.01-1.14-1.72L296.92,436.05z"/>
		<path class="st0" d="M357.35,462.23h-14.56c-2.16,0-3.89-0.63-5.18-1.89c-1.29-1.26-1.94-2.94-1.94-5.03V443.6
			c0-5.03,2.68-7.55,8.03-7.55h6.48c2.19,0,3.89,0.59,5.1,1.77c1.21,1.18,1.81,2.83,1.81,4.96v3.1l-17.08,7.93v0.87l0.15,1.11
			c0.1,0.35,0.15,0.59,0.17,0.7c0.01,0.11,0.09,0.27,0.22,0.46c0.32,0.61,1.13,0.92,2.42,0.92h14.37V462.23z M340.03,443.71
			l0.01,5.29l12.66-5.94v-0.43c0-0.84-0.19-1.42-0.56-1.74c-0.37-0.32-1.07-0.48-2.1-0.48h-7.11
			C341,440.41,340.03,441.51,340.03,443.71z"/>
		<path class="st0" d="M362.67,462.23v-19.26c0-2.38,0.48-4.11,1.45-5.18c0.52-0.48,1.25-0.89,2.2-1.23
			c0.95-0.34,1.88-0.51,2.78-0.51h2.47v4.4h-2.13c-1.61,0-2.42,0.87-2.42,2.61v19.16H362.67z"/>
		<path class="st0" d="M375.3,462.23v-34.88h4.35v34.88H375.3z M391.76,462.22L380.87,451c-0.68-0.78-1.02-1.52-1.02-2.23
			c0-0.55,0.07-1,0.22-1.36c0.14-0.35,0.4-0.73,0.79-1.11l10.23-10.24l6.14-0.01l-12.53,12.63l13.06,13.55L391.76,462.22z"/>
		<path class="st0" d="M421.98,462.23h-14.56c-2.16,0-3.89-0.63-5.18-1.89c-1.29-1.26-1.94-2.94-1.94-5.03V443.6
			c0-5.03,2.68-7.55,8.03-7.55h6.48c2.19,0,3.89,0.59,5.1,1.77c1.21,1.18,1.81,2.83,1.81,4.96v3.1l-17.08,7.93v0.87l0.15,1.11
			c0.1,0.35,0.15,0.59,0.17,0.7c0.01,0.11,0.09,0.27,0.22,0.46c0.32,0.61,1.13,0.92,2.42,0.92h14.37V462.23z M404.66,443.71
			l0.01,5.29l12.66-5.94v-0.43c0-0.84-0.19-1.42-0.56-1.74c-0.37-0.32-1.07-0.48-2.1-0.48h-7.11
			C405.63,440.41,404.66,441.51,404.66,443.71z"/>
		<path class="st0" d="M427.31,462.23v-19.45c0-2.29,0.76-4.06,2.27-5.32c1.13-0.94,2.81-1.4,5.03-1.4h6.92
			c2.22,0,3.92,0.47,5.08,1.4c0.74,0.61,1.31,1.36,1.69,2.25c0.38,0.89,0.58,1.91,0.58,3.07v19.45h-4.31v-18.87v-1.21
			c-0.03-0.29-0.21-0.61-0.53-0.97c-0.55-0.45-1.35-0.68-2.39-0.68h-7.02c-1.14,0-1.92,0.21-2.34,0.63
			c-0.42,0.42-0.63,1.16-0.63,2.22v18.87H427.31z"/>
	</g>
</g>
<g>
	<g>
		<g>
			<g>
				<circle class="st0" cx="245.16" cy="203.27" r="160.73"/>
			</g>
		</g>
		<g>
			<g>
				<rect x="167.23" y="116.66" class="st1" width="154.55" height="173.09"/>
			</g>
			<g>
				<polygon class="st2" points="309.41,129.02 309.41,250.73 179.6,250.73 179.6,129.02 309.41,129.02 				"/>
			</g>
		</g>
	</g>
	<g>
		<path class="st4" d="M321.78,116.66L321.78,116.66v173.09H167.23l74.2,74.2c1.24,0.03,2.48,0.05,3.73,0.05
			c88.77,0,160.73-71.96,160.73-160.73c0-0.85-0.02-1.69-0.03-2.53L321.78,116.66z"/>
	</g>
</g>
<g>
	<path class="st8" d="M274.53,105.66c0-8.08-0.01-16.16,0.01-24.24c0.01-2.53,1.59-4.34,3.94-4.62c2.3-0.27,4.44,1.15,4.93,3.36
		c0.18,0.81,0.21,1.69,0.11,2.51c-0.14,1.21,0.39,1.73,1.46,2.16c8.59,3.46,17.16,6.98,25.73,10.47c1.04,0.43,2.03,0.86,2.04,2.23
		c0.01,1.36-0.95,1.82-2,2.25c-8.53,3.47-17.05,6.99-25.6,10.41c-1.27,0.51-1.66,1.14-1.64,2.49c0.09,5.7,0.01,11.4,0.08,17.1
		c0.01,0.61,0.4,1.41,0.88,1.8c3.67,2.95,4.76,7.78,2.55,11.72c-2.26,4.02-6.95,5.58-11.44,3.87c-0.56-0.21-1.37-0.2-1.93,0.04
		c-5.18,2.25-10.32,4.59-15.48,6.88c-5.11,2.27-8.06,6.43-9.41,11.6c-1.22,4.68-2.02,9.49-2.69,14.28
		c-1.1,7.94-1.7,15.96-4.18,23.66c-3.24,10.03-9.44,17.36-19.26,21.52c-4.74,2.01-9.4,4.22-14.12,6.27
		c-0.84,0.36-1.18,0.85-1.37,1.7c-1.16,5.24-6.33,8.33-11.31,6.82c-5.1-1.55-7.75-6.91-5.86-11.84c1.91-4.98,7.52-7.19,12.4-4.82
		c0.8,0.39,1.39,0.4,2.19,0.03c4.73-2.16,9.45-4.35,14.25-6.35c7.43-3.09,12.03-8.61,14.47-16.14c2.07-6.36,2.72-12.97,3.49-19.56
		c0.8-6.79,1.55-13.59,3.88-20.08c2.69-7.48,7.57-12.86,15.01-15.92c4.53-1.87,8.98-3.94,13.43-5.99c0.47-0.21,0.96-0.84,1.04-1.34
		c0.43-2.56,1.61-4.62,3.61-6.3c0.46-0.38,0.73-1.24,0.73-1.89C274.55,121.72,274.53,113.69,274.53,105.66z"/>
	<path class="st0" d="M273.49,217.81c-0.27,0.35-0.5,0.73-0.79,1.04c-0.93,0.96-1.84,1.94-2.83,2.84c-0.94,0.85-1.03,1.56-0.04,2.44
		c1,0.89,1.87,1.91,2.85,2.82c0.87,0.81,0.94,1.52,0.04,2.37c-1.36,1.3-2.69,2.63-3.99,4c-0.86,0.91-1.62,0.97-2.5,0.02
		c-0.98-1.05-2.05-2.01-3.03-3.06c-0.66-0.7-1.27-0.67-1.91-0.03c-1.05,1.05-2.11,2.09-3.14,3.16c-0.78,0.81-1.49,0.83-2.28,0.02
		c-1.38-1.42-2.78-2.82-4.2-4.21c-0.75-0.74-0.78-1.41-0.01-2.15c1.07-1.03,2.09-2.11,3.16-3.14c0.72-0.69,0.76-1.3,0.01-2.01
		c-1.08-1.02-2.09-2.11-3.15-3.15c-0.75-0.73-0.8-1.4-0.03-2.15c1.45-1.42,2.89-2.85,4.31-4.3c0.77-0.78,1.43-0.68,2.15,0.07
		c0.96,1,1.99,1.93,2.93,2.96c0.81,0.89,1.5,0.96,2.34,0.04c0.97-1.06,1.96-2.12,3.07-3.01c0.4-0.33,1.44-0.49,1.74-0.22
		c1.7,1.51,3.27,3.17,4.86,4.79C273.25,217.14,273.32,217.46,273.49,217.81z"/>
	<path class="st0" d="M278.44,191.31c-0.37-0.26-0.75-0.46-1.06-0.76c-1.07-1.03-2.12-2.08-3.16-3.14c-0.65-0.66-1.25-0.65-1.9,0.03
		c-0.99,1.04-2.05,2.01-3.04,3.05c-0.8,0.86-1.53,0.95-2.38,0.06c-1.37-1.43-2.77-2.83-4.2-4.2c-0.79-0.76-0.72-1.41,0.03-2.14
		c1.07-1.03,2.09-2.11,3.16-3.14c0.73-0.7,0.7-1.33-0.02-2.02c-1.07-1.03-2.08-2.12-3.16-3.14c-0.77-0.74-0.77-1.4-0.01-2.14
		c1.42-1.38,2.83-2.77,4.21-4.19c0.78-0.8,1.46-0.88,2.25-0.02c0.98,1.05,2.04,2.02,3.03,3.06c0.73,0.76,1.36,0.83,2.12,0.02
		c1.02-1.08,2.11-2.09,3.14-3.16c0.7-0.73,1.35-0.71,2.04-0.02c1.47,1.47,2.93,2.95,4.41,4.41c0.73,0.72,0.62,1.36-0.07,2.03
		c-1.06,1.04-2.07,2.13-3.15,3.15c-0.83,0.78-0.65,1.42,0.08,2.13c1.07,1.03,2.18,2.04,3.1,3.19c0.31,0.38,0.39,1.42,0.1,1.74
		c-1.44,1.63-3.02,3.14-4.57,4.66C279.19,191,278.84,191.09,278.44,191.31z"/>
	<path class="st0" d="M201.57,167.26c0.36,0.25,0.75,0.46,1.05,0.76c1,0.96,2.01,1.92,2.93,2.95c0.88,0.98,1.61,0.9,2.46-0.04
		c0.93-1.03,1.96-1.95,2.92-2.95c0.75-0.78,1.42-0.73,2.15,0.02c1.38,1.42,2.77,2.83,4.2,4.2c0.84,0.81,0.76,1.5-0.03,2.27
		c-1.03,1-2,2.06-3.05,3.04c-0.81,0.75-0.76,1.37,0.03,2.1c1.05,0.98,2.02,2.04,3.05,3.04c0.82,0.79,0.78,1.51-0.02,2.28
		c-1.38,1.34-2.77,2.69-4.11,4.08c-0.85,0.89-1.57,0.83-2.38-0.03c-0.88-0.94-1.86-1.79-2.71-2.75c-0.96-1.1-1.76-0.99-2.69,0.05
		c-0.85,0.96-1.82,1.81-2.71,2.75c-0.76,0.81-1.46,0.88-2.26,0.04c-1.38-1.42-2.78-2.82-4.2-4.2c-0.84-0.81-0.72-1.52,0.07-2.27
		c0.96-0.93,1.86-1.92,2.86-2.81c0.94-0.84,1.04-1.55,0.04-2.44c-1.04-0.92-1.97-1.95-2.95-2.93c-0.59-0.59-0.91-1.24-0.23-1.94
		c1.55-1.6,3.13-3.17,4.72-4.73C200.92,167.55,201.22,167.46,201.57,167.26z"/>
</g>
</svg>
