<?xml version="1.0" encoding="utf-8"?>
<!-- Generator: Adobe Illustrator 27.8.1, SVG Export Plug-In . SVG Version: 6.00 Build 0)  -->
<svg version="1.1" id="Laag_1" xmlns="http://www.w3.org/2000/svg" xmlns:xlink="http://www.w3.org/1999/xlink" x="0px" y="0px"
	 viewBox="0 0 500 500" style="enable-background:new 0 0 500 500;" xml:space="preserve">
<style type="text/css">
	.st0{fill:#204A8F;}
	.st1{fill:#ECECEC;}
	.st2{fill:#6FBEC3;}
	.st3{fill:#EEEDED;}
	.st4{fill:#1F3665;}
	.st5{fill:#EFB04E;}
	.st6{fill:#D7D7D9;}
	.st7{fill:#3B4250;}
	.st8{fill:#FFFFFF;}
	.st9{fill:#517BBD;}
	.st10{fill:#F7F7F8;}
</style>
<g>
	<g>
		<path class="st0" d="M169.05,462.23h-13.5c-1.61,0-2.97-0.19-4.07-0.58c-1.1-0.38-2.07-1.03-2.93-1.93
			c-0.85-0.9-1.44-1.85-1.76-2.83c-0.32-0.98-0.48-2.33-0.48-4.04v-16.79c0-3.32,1.08-5.74,3.24-7.26c0.84-0.58,1.73-0.97,2.66-1.16
			s2.35-0.29,4.26-0.29h12.68v5.08h-12.58h-2.13c-0.87,0-1.61,0.36-2.2,1.09c-0.6,0.73-0.89,1.62-0.89,2.69v5.95h17.8v5.08h-17.8
			v4.64v2.18c0,0.81,0.34,1.53,1.02,2.18c0.61,0.52,1.21,0.82,1.79,0.92h2.71h12.19V462.23z"/>
		<path class="st0" d="M171.52,436.06h4.64l7.88,21.26l7.98-21.26h4.64l-8.95,24c-0.35,1-0.8,1.69-1.35,2.08
			c-0.55,0.39-1.31,0.58-2.31,0.58c-0.96,0-1.71-0.2-2.26-0.58c-0.55-0.39-0.99-1.09-1.35-2.09L171.52,436.06z"/>
		<path class="st0" d="M199.48,436.06h15.48c1.19,0,2.08,0.1,2.66,0.29c0.58,0.19,1.17,0.6,1.76,1.21c0.6,0.61,1.07,1.32,1.4,2.1
			c0.34,0.79,0.51,1.6,0.51,2.44v13.45c0,1.74-0.65,3.29-1.93,4.64c-1.29,1.35-2.78,2.03-4.45,2.03h-8.76
			c-1.74,0-3.29-0.71-4.64-2.13c-1.35-1.42-2.03-3.05-2.03-4.89v-3.14c0-2.61,0.57-4.62,1.72-6.02c1.14-1.4,2.78-2.1,4.91-2.1h10.79
			v-1.69c0-1.22-0.87-1.84-2.61-1.84h-14.8V436.06z M204.85,457.44c0.45,0.29,1.31,0.43,2.56,0.43h5.9c1.32,0,2.14-0.13,2.47-0.39
			c0.32-0.26,0.59-0.6,0.8-1.04c0.21-0.43,0.32-0.81,0.32-1.14v-4.21c0-0.87-0.32-1.56-0.94-2.08c-0.63-0.52-1.49-0.78-2.59-0.78
			h-6.05c-1.03,0-1.87,0.26-2.51,0.78c-0.65,0.52-0.97,1.21-0.97,2.08v4.21c0,0.29,0.1,0.65,0.29,1.09S204.56,457.18,204.85,457.44z
			"/>
		<path class="st0" d="M227.4,462.23v-34.88h4.35v34.88H227.4z"/>
		<path class="st0" d="M259.43,436.06v19.5c0,2.23-0.76,4-2.27,5.32c-0.61,0.48-1.32,0.83-2.1,1.04c-0.79,0.21-1.78,0.32-2.97,0.32
			h-6.92c-1.29,0-2.28-0.1-2.98-0.29c-0.69-0.19-1.38-0.55-2.05-1.06c-1.51-1.26-2.27-3.03-2.27-5.32v-19.5h4.35v18.92v1.21
			c0.06,0.36,0.24,0.66,0.53,0.92c0.48,0.45,1.28,0.68,2.38,0.68h6.99c1.13,0,1.92-0.2,2.36-0.61c0.44-0.4,0.65-1.14,0.65-2.2
			v-18.92H259.43z"/>
		<path class="st0" d="M287.29,462.23h-14.56c-2.16,0-3.89-0.63-5.18-1.89c-1.29-1.26-1.94-2.94-1.94-5.03V443.6
			c0-5.03,2.68-7.55,8.03-7.55h6.48c2.19,0,3.89,0.59,5.1,1.77c1.21,1.18,1.81,2.83,1.81,4.96v3.1l-17.08,7.93v0.87l0.15,1.11
			c0.1,0.35,0.15,0.59,0.17,0.7c0.01,0.11,0.09,0.27,0.22,0.46c0.32,0.61,1.13,0.92,2.42,0.92h14.37V462.23z M269.97,443.71
			l0.01,5.29l12.66-5.94v-0.43c0-0.84-0.19-1.42-0.56-1.74s-1.07-0.48-2.1-0.48h-7.11C270.94,440.41,269.97,441.51,269.97,443.71z"
			/>
		<path class="st0" d="M292.61,462.23v-19.26c0-2.38,0.48-4.11,1.45-5.18c0.52-0.48,1.25-0.89,2.2-1.23
			c0.95-0.34,1.88-0.51,2.78-0.51h2.47v4.4h-2.13c-1.61,0-2.42,0.87-2.42,2.61v19.16H292.61z"/>
		<path class="st0" d="M326.92,462.23h-14.56c-2.16,0-3.89-0.63-5.18-1.89c-1.29-1.26-1.94-2.94-1.94-5.03V443.6
			c0-5.03,2.68-7.55,8.03-7.55h6.48c2.19,0,3.89,0.59,5.1,1.77c1.21,1.18,1.81,2.83,1.81,4.96v3.1l-17.08,7.93v0.87l0.15,1.11
			c0.1,0.35,0.15,0.59,0.17,0.7c0.01,0.11,0.09,0.27,0.22,0.46c0.32,0.61,1.13,0.92,2.42,0.92h14.37V462.23z M309.6,443.71
			l0.01,5.29l12.66-5.94v-0.43c0-0.84-0.19-1.42-0.56-1.74c-0.37-0.32-1.07-0.48-2.1-0.48h-7.11
			C310.56,440.41,309.6,441.51,309.6,443.71z"/>
		<path class="st0" d="M332.24,462.23v-19.45c0-2.29,0.76-4.06,2.27-5.32c1.13-0.94,2.81-1.4,5.03-1.4h6.92
			c2.22,0,3.92,0.47,5.08,1.4c0.74,0.61,1.31,1.36,1.69,2.25c0.38,0.89,0.58,1.91,0.58,3.07v19.45h-4.31v-18.87v-1.21
			c-0.03-0.29-0.21-0.61-0.53-0.97c-0.55-0.45-1.35-0.68-2.39-0.68h-7.02c-1.14,0-1.92,0.21-2.34,0.63
			c-0.42,0.42-0.63,1.16-0.63,2.22v18.87H332.24z"/>
	</g>
</g>
<g>
	<g>
		<g>
			<g>
				<circle class="st0" cx="245.16" cy="202.42" r="160.78"/>
			</g>
		</g>
		<g>
			<g>
				<path class="st1" d="M315.56,140.16H173.33c-6.8,0-12.37,5.57-12.37,12.37v23.74c0,6.8,0,17.93,0,24.74v38.1
					c0,6.8,5.57,12.37,12.37,12.37h86.57l24.74,24.74v-24.74h30.92c6.8,0,12.37-5.57,12.37-12.37V201c0-6.8,0-17.93,0-24.74v-23.74
					C327.93,145.72,322.37,140.16,315.56,140.16z"/>
			</g>
			<g>
				<g>
					<rect x="194.98" y="174.17" class="st2" width="98.94" height="6.18"/>
				</g>
				<g>
					<rect x="194.98" y="198.91" class="st2" width="74.21" height="6.18"/>
				</g>
				<g>
					<rect x="194.98" y="186.54" class="st2" width="98.94" height="6.18"/>
				</g>
			</g>
		</g>
	</g>
	<g>
		<path class="st4" d="M324.3,143.79c2.24,2.24,3.63,5.33,3.63,8.73v23.74c0,6.8,0,17.93,0,24.74v38.1c0,6.8-5.57,12.37-12.37,12.37
			h-30.92v24.74l-24.74-24.74h-43.29h-43.29c-3.4,0-6.49-1.39-8.73-3.63l27.83,27.83l84.41,84.41
			c66.72-13.33,118.52-67.95,127.65-136.09L324.3,143.79z"/>
	</g>
</g>
</svg>
