<?xml version="1.0" encoding="utf-8"?>
<!-- Generator: Adobe Illustrator 27.8.1, SVG Export Plug-In . SVG Version: 6.00 Build 0)  -->
<svg version="1.1" id="Laag_1" xmlns="http://www.w3.org/2000/svg" xmlns:xlink="http://www.w3.org/1999/xlink" x="0px" y="0px"
	 viewBox="0 0 500 500" style="enable-background:new 0 0 500 500;" xml:space="preserve">
<style type="text/css">
	.st0{fill:#204A8F;}
	.st1{fill:#ECECEC;}
	.st2{fill:#6FBEC3;}
	.st3{fill:#EEEDED;}
	.st4{fill:#1F3665;}
	.st5{fill:#EFB04E;}
	.st6{fill:#D7D7D9;}
	.st7{fill:#3B4250;}
	.st8{fill:#FFFFFF;}
	.st9{fill:#517BBD;}
	.st10{fill:#F7F7F8;}
</style>
<g>
	<g>
		<path class="st0" d="M151.6,462.18V427.3h5.03v34.88H151.6z"/>
		<path class="st0" d="M162.78,462.18v-19.45c0-2.29,0.76-4.06,2.27-5.32c1.13-0.94,2.81-1.4,5.03-1.4H177
			c2.22,0,3.92,0.47,5.08,1.4c0.74,0.61,1.31,1.36,1.69,2.25c0.38,0.89,0.58,1.91,0.58,3.07v19.45h-4.31v-18.87v-1.21
			c-0.03-0.29-0.21-0.61-0.53-0.97c-0.55-0.45-1.35-0.68-2.39-0.68h-7.02c-1.14,0-1.92,0.21-2.34,0.63
			c-0.42,0.42-0.63,1.16-0.63,2.22v18.87H162.78z"/>
		<path class="st0" d="M189.63,462.18v-4.35h12.29h1.11c1.19,0,1.79-0.87,1.79-2.61v-2.03c0-1.65-0.85-2.47-2.56-2.47h-5.9
			c-1.97,0-3.47-0.4-4.5-1.21c-0.61-0.45-1.11-1.07-1.5-1.86c-0.39-0.79-0.58-1.57-0.58-2.35v-3.29c0-1.87,0.51-3.34,1.54-4.4
			c1.03-1.07,2.45-1.6,4.25-1.6h13.61v4.36h-12.35h-0.87c-0.55,0-0.99,0.18-1.35,0.53c-0.35,0.35-0.53,0.82-0.53,1.4v1.89
			c0,0.61,0.24,1.12,0.7,1.52c0.47,0.4,1.04,0.6,1.72,0.6h6.48c1.68,0,3.13,0.6,4.35,1.79c1.22,1.19,1.84,2.61,1.84,4.26v4.11
			c0,1.48-0.56,2.81-1.69,3.97s-2.43,1.74-3.92,1.74H189.63z"/>
		<path class="st0" d="M214.49,462.18V427.3h4.35v8.71h4.45v4.36h-4.45v21.82H214.49z"/>
		<path class="st0" d="M226.01,462.18v-19.26c0-2.38,0.48-4.11,1.45-5.18c0.52-0.48,1.25-0.89,2.2-1.23
			c0.95-0.34,1.88-0.51,2.78-0.51h2.47v4.4h-2.13c-1.61,0-2.42,0.87-2.42,2.61v19.16H226.01z"/>
		<path class="st0" d="M260.21,436.01v19.5c0,2.23-0.76,4-2.27,5.32c-0.61,0.48-1.32,0.83-2.1,1.04c-0.79,0.21-1.78,0.32-2.97,0.32
			h-6.92c-1.29,0-2.28-0.1-2.98-0.29c-0.69-0.19-1.38-0.55-2.05-1.06c-1.51-1.26-2.27-3.03-2.27-5.32v-19.5h4.35v18.92v1.21
			c0.06,0.36,0.24,0.66,0.53,0.92c0.48,0.45,1.28,0.68,2.38,0.68h6.99c1.13,0,1.92-0.2,2.36-0.61c0.44-0.4,0.65-1.14,0.65-2.2
			v-18.92H260.21z"/>
		<path class="st0" d="M288.08,462.18h-14.56c-2.16,0-3.89-0.63-5.18-1.89c-1.29-1.26-1.94-2.94-1.94-5.03v-11.71
			c0-5.03,2.68-7.55,8.03-7.55h6.48c2.19,0,3.89,0.59,5.1,1.77c1.21,1.18,1.81,2.83,1.81,4.96v3.1l-17.08,7.93v0.87l0.15,1.11
			c0.1,0.35,0.15,0.59,0.17,0.7c0.01,0.11,0.09,0.27,0.22,0.46c0.32,0.61,1.13,0.92,2.42,0.92h14.37V462.18z M270.76,443.66
			l0.01,5.29l12.66-5.94v-0.43c0-0.84-0.19-1.42-0.56-1.74c-0.37-0.32-1.07-0.48-2.1-0.48h-7.11
			C271.73,440.36,270.76,441.46,270.76,443.66z"/>
		<path class="st0" d="M293.4,462.18v-19.26c0-2.38,0.48-4.11,1.45-5.18c0.52-0.48,1.25-0.89,2.2-1.23
			c0.95-0.34,1.88-0.51,2.78-0.51h2.47v4.4h-2.13c-1.61,0-2.42,0.87-2.42,2.61v19.16H293.4z"/>
		<path class="st0" d="M327.7,462.18h-14.56c-2.16,0-3.89-0.63-5.18-1.89c-1.29-1.26-1.94-2.94-1.94-5.03v-11.71
			c0-5.03,2.68-7.55,8.03-7.55h6.48c2.19,0,3.89,0.59,5.1,1.77c1.21,1.18,1.81,2.83,1.81,4.96v3.1l-17.08,7.93v0.87l0.15,1.11
			c0.1,0.35,0.15,0.59,0.17,0.7c0.01,0.11,0.09,0.27,0.22,0.46c0.32,0.61,1.13,0.92,2.42,0.92h14.37V462.18z M310.38,443.66
			l0.01,5.29l12.66-5.94v-0.43c0-0.84-0.19-1.42-0.56-1.74c-0.37-0.32-1.07-0.48-2.1-0.48h-7.11
			C311.35,440.36,310.38,441.46,310.38,443.66z"/>
		<path class="st0" d="M333.02,462.18v-19.45c0-2.29,0.76-4.06,2.27-5.32c1.13-0.94,2.81-1.4,5.03-1.4h6.92
			c2.22,0,3.92,0.47,5.08,1.4c0.74,0.61,1.31,1.36,1.69,2.25c0.38,0.89,0.58,1.91,0.58,3.07v19.45h-4.31v-18.87v-1.21
			c-0.03-0.29-0.21-0.61-0.53-0.97c-0.55-0.45-1.35-0.68-2.39-0.68h-7.02c-1.14,0-1.92,0.21-2.34,0.63
			c-0.42,0.42-0.63,1.16-0.63,2.22v18.87H333.02z"/>
	</g>
</g>
<g>
	<g>
		<g>
			<g>
				<circle class="st0" cx="248.14" cy="202.43" r="160.44"/>
			</g>
		</g>
		<g>
			<g>
				<rect x="161.75" y="134.55" class="st2" width="172.78" height="135.76"/>
			</g>
			<g>
				<path class="st8" d="M334.53,140.73H161.75c-3.41,0-6.17-2.76-6.17-6.17s2.76-6.17,6.17-6.17h172.78c3.41,0,6.17,2.76,6.17,6.17
					S337.94,140.73,334.53,140.73z"/>
			</g>
			<g>
				<path class="st8" d="M334.53,276.48H161.75c-3.41,0-6.17-2.76-6.17-6.17c0-3.41,2.76-6.17,6.17-6.17h172.78
					c3.41,0,6.17,2.76,6.17,6.17C340.7,273.72,337.94,276.48,334.53,276.48z"/>
			</g>
		</g>
	</g>
	<g>
		<path class="st4" d="M408.54,199.84l-69.65-69.65c1.12,1.12,1.81,2.66,1.81,4.36c0,3.41-2.76,6.17-6.17,6.17v123.42
			c3.41,0,6.17,2.76,6.17,6.17s-2.76,6.17-6.17,6.17H192.6h-30.85c-1.7,0-3.25-0.69-4.36-1.81v0l18.51,18.51l69.65,69.65
			c0.86,0.01,1.72,0.03,2.59,0.03c88.61,0,160.44-71.83,160.44-160.44C408.58,201.57,408.56,200.71,408.54,199.84z"/>
	</g>
</g>
<path id="p_00000000215441084674584380000013443430350663603610_" class="st0" d="M194.67,181.64c1.49,1.23,3.3,1.61,5.15,1.4
	l-9.54,11.6l29.97,24.64l24.64-29.97l-11.71-9.62c0.22,1.85-0.19,3.69-1.42,5.18c-2.27,2.76-6.36,3.18-9.12,0.91
	c-2.76-2.27-3.13-6.37-0.86-9.13c1.23-1.49,2.94-2.24,4.8-2.39l-11.66-9.59l-9.67,11.77c-0.15-1.86-0.87-3.56-2.37-4.78
	c-2.76-2.27-6.83-1.87-9.1,0.89C191.52,175.3,191.92,179.37,194.67,181.64z"/>
<g>
	<g>
		<path class="st10" d="M228.74,198.45c-3.87,2.11-16.22,8.82-16.22,8.82s0,0-3.76,2.05c-0.68,0.37-1.13-0.01-1.21-0.51l-8.52-7.07
			c-1.12,2.33-2.62,5.38-4.31,9.39c-5.32,12.64-12.33,13.94-11.31,15.82c1.02,1.88,8.18,15.05,9.2,16.93
			c1.02,1.88,14.7-0.61,19.49-0.78c4.78-0.16,16.43-6.26,20.2-8.31c3.76-2.05,1.74-10.38-2.03-8.34c1.38-0.75,2.72-1.48,3.76-2.05
			c3.76-2.05,1.43-10.81-2.33-8.77c0.87-0.47,1.06-0.57,2.03-1.1c3.39-1.84-0.56-9.1-3.95-7.26c4.36-2.37,0.97-0.53,2.9-1.58
			C237.04,203.34,233.1,196.08,228.74,198.45z"/>
	</g>
</g>
<path id="p_00000055667776745070750240000004181663667420064424_" class="st4" d="M256.65,178.48c1.27,1.46,2.99,2.13,4.85,2.22
	l-11.32,9.88l25.52,29.23l29.23-25.52l-9.97-11.42c-0.09,1.86-0.8,3.6-2.25,4.88c-2.69,2.35-6.8,2.09-9.15-0.6
	c-2.35-2.69-2.04-6.8,0.65-9.15c1.46-1.27,3.27-1.73,5.12-1.57l-9.93-11.37l-11.47,10.02c0.16-1.86-0.28-3.65-1.55-5.11
	c-2.35-2.69-6.44-2.97-9.12-0.62C254.58,171.71,254.3,175.79,256.65,178.48z"/>
<g>
	<g>
		<path class="st10" d="M264.93,199.72c3.96,1.93,17.08,8.3,17.08,8.3s0,0,3.85,1.87c0.69,0.34,1.13-0.06,1.19-0.56l8.19-7.45
			c1.23,2.28,2.63,5.14,4.49,9.07c5.89,12.38,12.72,13.25,11.78,15.18c-0.94,1.93-7.49,15.41-8.42,17.33
			c-0.94,1.93-14.48,0.18-19.27,0.23c-4.79,0.05-16.58-5.45-20.44-7.32c-3.85-1.87-2.09-10.23,1.76-8.36
			c-1.42-0.69-2.78-1.35-3.85-1.87c-3.85-1.87-1.92-10.74,1.93-8.86c-0.89-0.43-1.56-0.76-2.55-1.24c-3.47-1.69-0.13-9.29,3.61-7.43
			c0,0-0.99-0.48-2.97-1.45C256.86,204.99,260.47,197.55,264.93,199.72z"/>
	</g>
</g>
</svg>
