<?xml version="1.0" encoding="utf-8"?>
<!-- Generator: Adobe Illustrator 27.8.1, SVG Export Plug-In . SVG Version: 6.00 Build 0)  -->
<svg version="1.1" id="Laag_1" xmlns="http://www.w3.org/2000/svg" xmlns:xlink="http://www.w3.org/1999/xlink" x="0px" y="0px"
	 viewBox="0 0 500 500" style="enable-background:new 0 0 500 500;" xml:space="preserve">
<style type="text/css">
	.st0{fill:#204A8F;}
	.st1{fill:#ECECEC;}
	.st2{fill:#6FBEC3;}
	.st3{fill:#EEEDED;}
	.st4{fill:#1F3665;}
	.st5{fill:#EFB04E;}
	.st6{fill:#D7D7D9;}
	.st7{fill:#3B4250;}
	.st8{fill:#FFFFFF;}
	.st9{fill:#517BBD;}
	.st10{fill:#F7F7F8;}
</style>
<g>
	<circle class="st0" cx="247.06" cy="202.82" r="160.78"/>
</g>
<g>
	<g>
		<path class="st0" d="M41.35,460.18c-2.01,0-3.46-0.13-4.34-0.4c-0.88-0.26-1.71-0.84-2.51-1.71c-1.25-1.33-1.87-3.3-1.87-5.93
			v-12.61c0-1.43,0.14-2.58,0.42-3.44c0.28-0.86,0.78-1.71,1.51-2.53c0.73-0.82,1.55-1.37,2.47-1.65c0.92-0.28,2.35-0.42,4.32-0.42
			h3.1c2.04,0,3.48,0.13,4.32,0.4c0.84,0.26,1.68,0.83,2.52,1.71c1.27,1.35,1.91,3.33,1.91,5.93v12.61c0,1.43-0.13,2.58-0.4,3.44
			c-0.27,0.86-0.78,1.71-1.53,2.53c-0.76,0.82-1.59,1.37-2.5,1.65c-0.92,0.28-2.35,0.42-4.32,0.42H41.35z M36.78,452.35
			c0,1.43,0.26,2.4,0.79,2.9c0.53,0.5,1.58,0.76,3.14,0.76h4.41c1.54,0,2.58-0.25,3.12-0.74c0.54-0.49,0.82-1.45,0.82-2.88v-13.05
			c0-1.38-0.28-2.33-0.84-2.86c-0.56-0.53-1.59-0.8-3.1-0.8h-4.41c-1.51,0-2.55,0.25-3.1,0.76c-0.56,0.5-0.84,1.47-0.84,2.9V452.35z
			"/>
		<path class="st0" d="M76.07,460.18H64.1c-1.78,0-3.2-0.52-4.26-1.55c-1.06-1.03-1.59-2.41-1.59-4.14v-9.63c0-4.13,2.2-6.2,6.6-6.2
			h5.33c1.8,0,3.2,0.48,4.2,1.45c0.99,0.97,1.49,2.33,1.49,4.08v2.55l-14.04,6.52v0.72l0.12,0.92c0.08,0.29,0.13,0.48,0.14,0.58
			c0.01,0.09,0.07,0.22,0.18,0.38c0.27,0.5,0.93,0.76,1.99,0.76h11.81V460.18z M61.83,444.96l0.01,4.35l10.41-4.88v-0.36
			c0-0.69-0.15-1.17-0.46-1.43s-0.88-0.4-1.73-0.4h-5.85C62.63,442.25,61.83,443.15,61.83,444.96z"/>
		<path class="st0" d="M80.45,460.18V437c0-1.78,0.66-3.22,1.98-4.34c0.5-0.45,1.01-0.76,1.52-0.92c0.51-0.16,1.26-0.24,2.23-0.24
			h1.46v3.62h-1.45c-1.44,0-2.17,0.85-2.17,2.55v0.99h3.62v3.58h-3.62v17.94H80.45z"/>
		<path class="st0" d="M107.77,460.18H95.8c-1.78,0-3.2-0.52-4.26-1.55c-1.06-1.03-1.59-2.41-1.59-4.14v-9.63
			c0-4.13,2.2-6.2,6.6-6.2h5.33c1.8,0,3.2,0.48,4.2,1.45c0.99,0.97,1.49,2.33,1.49,4.08v2.55l-14.04,6.52v0.72l0.12,0.92
			c0.08,0.29,0.13,0.48,0.14,0.58c0.01,0.09,0.07,0.22,0.18,0.38c0.27,0.5,0.93,0.76,1.99,0.76h11.81V460.18z M93.53,444.96
			l0.01,4.35l10.41-4.88v-0.36c0-0.69-0.15-1.17-0.46-1.43s-0.88-0.4-1.73-0.4h-5.85C94.33,442.25,93.53,443.15,93.53,444.96z"/>
		<path class="st0" d="M112.15,460.18v-15.99c0-1.88,0.62-3.34,1.87-4.37c0.93-0.77,2.31-1.15,4.14-1.15h5.69
			c1.83,0,3.22,0.38,4.18,1.15c0.61,0.5,1.07,1.12,1.39,1.85c0.32,0.73,0.48,1.57,0.48,2.52v15.99h-3.54v-15.51v-0.99
			c-0.03-0.24-0.17-0.5-0.44-0.79c-0.46-0.37-1.11-0.56-1.96-0.56h-5.77c-0.94,0-1.58,0.17-1.92,0.52
			c-0.35,0.34-0.52,0.95-0.52,1.83v15.51H112.15z"/>
		<path class="st0" d="M152.79,460.18h-11.97c-1.78,0-3.2-0.52-4.26-1.55c-1.06-1.03-1.59-2.41-1.59-4.14v-9.63
			c0-4.13,2.2-6.2,6.6-6.2h5.33c1.8,0,3.2,0.48,4.2,1.45c0.99,0.97,1.49,2.33,1.49,4.08v2.55l-14.04,6.52v0.72l0.12,0.92
			c0.08,0.29,0.13,0.48,0.14,0.58c0.01,0.09,0.07,0.22,0.18,0.38c0.27,0.5,0.93,0.76,1.99,0.76h11.81V460.18z M138.55,444.96
			l0.01,4.35l10.41-4.88v-0.36c0-0.69-0.15-1.17-0.46-1.43c-0.31-0.26-0.88-0.4-1.73-0.4h-5.85
			C139.35,442.25,138.55,443.15,138.55,444.96z"/>
		<path class="st0" d="M157.17,460.18v-15.99c0-1.88,0.62-3.34,1.87-4.37c0.93-0.77,2.31-1.15,4.14-1.15h5.69
			c1.83,0,3.22,0.38,4.18,1.15c0.61,0.5,1.07,1.12,1.39,1.85c0.32,0.73,0.48,1.57,0.48,2.52v15.99h-3.54v-15.51v-0.99
			c-0.03-0.24-0.17-0.5-0.44-0.79c-0.46-0.37-1.11-0.56-1.96-0.56h-5.77c-0.94,0-1.58,0.17-1.92,0.52
			c-0.35,0.34-0.52,0.95-0.52,1.83v15.51H157.17z"/>
		<path class="st0" d="M209.35,460.18h-11.97c-1.78,0-3.2-0.52-4.26-1.55c-1.06-1.03-1.59-2.41-1.59-4.14v-9.63
			c0-4.13,2.2-6.2,6.6-6.2h5.33c1.8,0,3.2,0.48,4.2,1.45c0.99,0.97,1.49,2.33,1.49,4.08v2.55l-14.04,6.52v0.72l0.12,0.92
			c0.08,0.29,0.13,0.48,0.14,0.58c0.01,0.09,0.07,0.22,0.18,0.38c0.27,0.5,0.93,0.76,1.99,0.76h11.81V460.18z M195.11,444.96
			l0.01,4.35l10.41-4.88v-0.36c0-0.69-0.15-1.17-0.46-1.43c-0.31-0.26-0.88-0.4-1.73-0.4h-5.85
			C195.91,442.25,195.11,443.15,195.11,444.96z"/>
		<path class="st0" d="M213.73,460.18v-15.99c0-1.88,0.62-3.34,1.87-4.37c0.93-0.77,2.31-1.15,4.14-1.15h5.69
			c1.83,0,3.22,0.38,4.18,1.15c0.61,0.5,1.07,1.12,1.39,1.85c0.32,0.73,0.48,1.57,0.48,2.52v15.99h-3.54v-15.51v-0.99
			c-0.03-0.24-0.17-0.5-0.44-0.79c-0.46-0.37-1.11-0.56-1.96-0.56h-5.77c-0.94,0-1.58,0.17-1.92,0.52
			c-0.35,0.34-0.52,0.95-0.52,1.83v15.51H213.73z"/>
		<path class="st0" d="M265.79,431.51v22.63c0,1.67-0.52,3.1-1.57,4.28c-1.05,1.18-2.3,1.77-3.76,1.77h-7.04
			c-0.64,0-1.33-0.16-2.07-0.48c-0.74-0.32-1.38-0.74-1.91-1.27c-0.9-0.9-1.35-2.2-1.35-3.9v-10.42c0-1.75,0.5-3.1,1.49-4.04
			c0.99-0.94,2.43-1.41,4.31-1.41h8.31v-7.16H265.79z M251.67,454.34c0,0.61,0.19,1.14,0.56,1.59c0.37,0.45,0.82,0.68,1.35,0.68
			h6.28c0.71,0,1.29-0.24,1.71-0.72c0.42-0.48,0.64-1.1,0.64-1.87v-9.43c0-1.56-0.77-2.35-2.31-2.35h-5.89
			c-1.56,0-2.35,0.81-2.35,2.42V454.34z"/>
		<path class="st0" d="M270.12,434.01c0-0.71,0.23-1.31,0.68-1.79c0.45-0.48,1.02-0.71,1.71-0.71c0.72,0,1.32,0.25,1.81,0.74
			c0.49,0.49,0.74,1.08,0.74,1.77c0,0.69-0.24,1.27-0.71,1.75c-0.48,0.48-1.06,0.72-1.75,0.72c-0.69,0-1.27-0.24-1.75-0.72
			C270.36,435.28,270.12,434.7,270.12,434.01z M270.84,460.18v-21.52h3.54v21.52H270.84z"/>
		<path class="st0" d="M279.47,460.18V437c0-1.78,0.66-3.22,1.98-4.34c0.5-0.45,1.01-0.76,1.52-0.92c0.51-0.16,1.26-0.24,2.23-0.24
			h1.46v3.62h-1.45c-1.44,0-2.17,0.85-2.17,2.55v0.99h3.62v3.58h-3.62v17.94H279.47z"/>
		<path class="st0" d="M289.33,460.18V437c0-1.78,0.66-3.22,1.98-4.34c0.5-0.45,1.01-0.76,1.52-0.92c0.51-0.16,1.26-0.24,2.23-0.24
			h1.46v3.62h-1.45c-1.44,0-2.17,0.85-2.17,2.55v0.99h3.62v3.58h-3.62v17.94H289.33z"/>
		<path class="st0" d="M316.66,460.18h-11.97c-1.78,0-3.2-0.52-4.26-1.55c-1.06-1.03-1.59-2.41-1.59-4.14v-9.63
			c0-4.13,2.2-6.2,6.6-6.2h5.33c1.8,0,3.2,0.48,4.2,1.45c0.99,0.97,1.49,2.33,1.49,4.08v2.55l-14.04,6.52v0.72l0.12,0.92
			c0.08,0.29,0.13,0.48,0.14,0.58c0.01,0.09,0.07,0.22,0.18,0.38c0.27,0.5,0.93,0.76,1.99,0.76h11.81V460.18z M302.42,444.96
			l0.01,4.35l10.41-4.88v-0.36c0-0.69-0.15-1.17-0.46-1.43c-0.31-0.26-0.88-0.4-1.73-0.4h-5.85
			C303.22,442.25,302.42,443.15,302.42,444.96z"/>
		<path class="st0" d="M321.03,460.18v-15.83c0-1.96,0.4-3.38,1.19-4.26c0.42-0.4,1.03-0.74,1.81-1.01
			c0.78-0.28,1.54-0.42,2.29-0.42h2.03v3.62h-1.75c-1.33,0-1.99,0.71-1.99,2.15v15.75H321.03z"/>
		<path class="st0" d="M349.23,460.18h-11.97c-1.78,0-3.2-0.52-4.26-1.55c-1.06-1.03-1.59-2.41-1.59-4.14v-9.63
			c0-4.13,2.2-6.2,6.6-6.2h5.33c1.8,0,3.2,0.48,4.2,1.45c0.99,0.97,1.49,2.33,1.49,4.08v2.55l-14.04,6.52v0.72l0.12,0.92
			c0.08,0.29,0.13,0.48,0.14,0.58c0.01,0.09,0.07,0.22,0.18,0.38c0.27,0.5,0.93,0.76,1.99,0.76h11.81V460.18z M334.99,444.96
			l0.01,4.35l10.41-4.88v-0.36c0-0.69-0.15-1.17-0.46-1.43c-0.31-0.26-0.88-0.4-1.73-0.4h-5.85
			C335.79,442.25,334.99,443.15,334.99,444.96z"/>
		<path class="st0" d="M353.61,460.18v-15.99c0-1.88,0.62-3.34,1.87-4.37c0.93-0.77,2.31-1.15,4.14-1.15h5.69
			c1.83,0,3.22,0.38,4.18,1.15c0.61,0.5,1.07,1.12,1.39,1.85c0.32,0.73,0.48,1.57,0.48,2.52v15.99h-3.54v-15.51v-0.99
			c-0.03-0.24-0.17-0.5-0.44-0.79c-0.46-0.37-1.11-0.56-1.96-0.56h-5.77c-0.94,0-1.58,0.17-1.92,0.52
			c-0.35,0.34-0.52,0.95-0.52,1.83v15.51H353.61z"/>
		<path class="st0" d="M376.44,460.18v-28.68h3.58v7.16h3.66v3.58h-3.66v17.94H376.44z"/>
		<path class="st0" d="M385.15,434.01c0-0.71,0.23-1.31,0.68-1.79c0.45-0.48,1.02-0.71,1.71-0.71c0.72,0,1.32,0.25,1.81,0.74
			c0.49,0.49,0.74,1.08,0.74,1.77c0,0.69-0.24,1.27-0.71,1.75c-0.48,0.48-1.06,0.72-1.75,0.72c-0.69,0-1.27-0.24-1.75-0.72
			C385.39,435.28,385.15,434.7,385.15,434.01z M385.86,460.18v-21.52h3.54v21.52H385.86z"/>
		<path class="st0" d="M412.31,460.18h-11.97c-1.78,0-3.2-0.52-4.26-1.55c-1.06-1.03-1.59-2.41-1.59-4.14v-9.63
			c0-4.13,2.2-6.2,6.6-6.2h5.33c1.8,0,3.2,0.48,4.2,1.45c0.99,0.97,1.49,2.33,1.49,4.08v2.55l-14.04,6.52v0.72l0.12,0.92
			c0.08,0.29,0.13,0.48,0.14,0.58c0.01,0.09,0.07,0.22,0.18,0.38c0.27,0.5,0.93,0.76,1.99,0.76h11.81V460.18z M397.16,434.01
			c0-0.71,0.23-1.31,0.68-1.79c0.45-0.48,1.02-0.71,1.71-0.71c0.69,0,1.28,0.24,1.79,0.71c0.5,0.48,0.76,1.07,0.76,1.79
			c0,0.69-0.24,1.27-0.72,1.75c-0.48,0.48-1.06,0.72-1.75,0.72c-0.69,0-1.27-0.24-1.75-0.72
			C397.4,435.28,397.16,434.7,397.16,434.01z M398.07,444.96l0.01,4.35l10.41-4.88v-0.36c0-0.69-0.15-1.17-0.46-1.43
			s-0.88-0.4-1.73-0.4h-5.85C398.87,442.25,398.07,443.15,398.07,444.96z M404,434.01c0-0.71,0.23-1.31,0.68-1.79
			c0.45-0.48,1.03-0.71,1.75-0.71c0.69,0,1.27,0.24,1.75,0.71c0.48,0.48,0.72,1.07,0.72,1.79c0,0.69-0.23,1.27-0.68,1.75
			c-0.45,0.48-1.03,0.72-1.75,0.72c-0.69,0-1.27-0.24-1.75-0.72C404.24,435.28,404,434.7,404,434.01z"/>
		<path class="st0" d="M416.69,460.18v-15.83c0-1.96,0.4-3.38,1.19-4.26c0.42-0.4,1.03-0.74,1.81-1.01
			c0.78-0.28,1.54-0.42,2.29-0.42H424v3.62h-1.75c-1.33,0-1.99,0.71-1.99,2.15v15.75H416.69z"/>
		<path class="st0" d="M444.89,460.18h-11.97c-1.78,0-3.2-0.52-4.26-1.55c-1.06-1.03-1.59-2.41-1.59-4.14v-9.63
			c0-4.13,2.2-6.2,6.6-6.2H439c1.8,0,3.2,0.48,4.2,1.45c0.99,0.97,1.49,2.33,1.49,4.08v2.55l-14.04,6.52v0.72l0.12,0.92
			c0.08,0.29,0.13,0.48,0.14,0.58c0.01,0.09,0.07,0.22,0.18,0.38c0.27,0.5,0.93,0.76,1.99,0.76h11.81V460.18z M430.65,444.96
			l0.01,4.35l10.41-4.88v-0.36c0-0.69-0.15-1.17-0.46-1.43s-0.88-0.4-1.73-0.4h-5.85C431.44,442.25,430.65,443.15,430.65,444.96z"/>
		<path class="st0" d="M449.26,460.18v-15.99c0-1.88,0.62-3.34,1.87-4.37c0.93-0.77,2.31-1.15,4.14-1.15h5.69
			c1.83,0,3.22,0.38,4.18,1.15c0.61,0.5,1.07,1.12,1.39,1.85c0.32,0.73,0.48,1.57,0.48,2.52v15.99h-3.54v-15.51v-0.99
			c-0.03-0.24-0.17-0.5-0.44-0.79c-0.46-0.37-1.11-0.56-1.96-0.56h-5.77c-0.94,0-1.58,0.17-1.92,0.52
			c-0.35,0.34-0.52,0.95-0.52,1.83v15.51H449.26z"/>
	</g>
</g>
<g>
	<path class="st4" d="M328.39,146.43c2.24,2.24,1.39,3.09,1.39,6.49v23.74c0,6.8-23.4,26.15,1.4,24.9l-145.03,50.16
		c-3.4,0-43.18,19.41-45.42,17.17l10.25,5.92l105.09,88.79c72.35-4.4,145.88-63.54,150.27-139.21L328.39,146.43z"/>
</g>
<g>
	<path class="st2" d="M199.7,209.96c19.07,0,32.24-23.66,32.24-47.33c0-23.67-4.29-43.15-32.24-43.15
		c-27.96,0-32.48,19.48-32.48,43.15S180.63,209.96,199.7,209.96z"/>
	<path class="st2" d="M231.63,201.57c-1.82,9-14.38,18.73-31.79,18.73s-30.42-9.56-32.12-18.73c-24.08,1.72-35,36-35,36v18.08
		c0,12.04,18.27,19.17,18.27,19.17h97.03c0,0,18.45-7.13,18.45-19.17v-18.08C266.46,237.56,255.7,203.29,231.63,201.57z"/>
</g>
<g>
	<path class="st3" d="M298.93,232.1c19.07,0,32.24-23.66,32.24-47.33c0-23.67-4.29-43.15-32.24-43.15
		c-27.96,0-32.48,19.48-32.48,43.15S279.86,232.1,298.93,232.1z"/>
	<path class="st3" d="M330.86,223.71c-1.82,9-14.38,18.73-31.79,18.73c-17.42,0-30.42-9.56-32.12-18.73c-24.08,1.72-35,36-35,36
		v18.08c0,12.04,18.27,19.17,18.27,19.17h97.03c0,0,18.45-7.13,18.45-19.17v-18.08C365.7,259.71,354.93,225.43,330.86,223.71z"/>
</g>
<g>
	
		<ellipse transform="matrix(0.7071 -0.7071 0.7071 0.7071 -13.3354 277.7902)" class="st2" cx="328.65" cy="154.99" rx="19.49" ry="19.49"/>
</g>
<polygon class="st5" points="192.4,247.17 192.42,247.19 192.44,247.17 "/>
<polygon class="st2" points="198.6,275.21 198.61,275.22 198.6,275.21 "/>
<polygon class="st2" points="198.59,275.2 198.6,275.21 198.6,275.21 "/>
<g>
	
		<ellipse transform="matrix(0.7071 -0.7071 0.7071 0.7071 -42.5445 161.3798)" class="st3" cx="173.53" cy="132.05" rx="17.73" ry="17.74"/>
</g>
<g>
	<g>
		<rect x="166.8" y="123.33" class="st0" width="12.71" height="17.76"/>
	</g>
	<g>
		<g>
			<rect x="167.78" y="129.36" class="st3" width="1.95" height="1.95"/>
		</g>
		<g>
			<rect x="170.71" y="129.36" class="st3" width="1.95" height="1.95"/>
		</g>
		<g>
			<rect x="173.64" y="129.36" class="st3" width="1.95" height="1.95"/>
		</g>
		<g>
			<rect x="176.57" y="129.36" class="st3" width="1.95" height="1.95"/>
		</g>
		<g>
			<rect x="167.78" y="132.29" class="st3" width="1.95" height="1.95"/>
		</g>
		<g>
			<rect x="170.71" y="132.29" class="st3" width="1.95" height="1.95"/>
		</g>
		<g>
			<rect x="173.64" y="132.29" class="st3" width="1.95" height="1.95"/>
		</g>
		<g>
			<rect x="176.57" y="132.29" class="st3" width="1.95" height="1.95"/>
		</g>
		<g>
			<rect x="167.78" y="135.22" class="st3" width="1.95" height="1.95"/>
		</g>
		<g>
			<rect x="170.71" y="135.22" class="st3" width="1.95" height="1.95"/>
		</g>
		<g>
			<rect x="173.64" y="135.22" class="st3" width="1.95" height="1.95"/>
		</g>
		<g>
			<rect x="176.57" y="135.22" class="st3" width="1.95" height="1.95"/>
		</g>
		<g>
			<rect x="167.78" y="138.15" class="st3" width="1.95" height="1.95"/>
		</g>
		<g>
			<rect x="170.71" y="138.15" class="st3" width="1.95" height="1.95"/>
		</g>
		<g>
			<rect x="173.64" y="138.15" class="st3" width="4.89" height="1.95"/>
		</g>
	</g>
	<g>
		<rect x="167.78" y="124.3" class="st6" width="10.75" height="3.91"/>
	</g>
</g>
<g>
	<g>
		<g>
			<polygon class="st3" points="332.84,145.71 322.46,145.71 322.46,163.87 335.43,163.87 335.43,148.3 			"/>
		</g>
		<g>
			<polygon class="st6" points="332.84,148.3 335.43,148.3 332.84,145.71 			"/>
		</g>
	</g>
</g>
<g>
	<g>
		<rect x="323.75" y="156.53" class="st7" width="10.38" height="0.65"/>
	</g>
	<g>
		<rect x="323.75" y="159.12" class="st7" width="7.79" height="0.65"/>
	</g>
	<g>
		<rect x="323.75" y="157.82" class="st7" width="10.38" height="0.65"/>
	</g>
</g>
</svg>
